<?xml version="1.0" encoding="utf-8"?>
<!-- Generator: Adobe Illustrator 24.2.1, SVG Export Plug-In . SVG Version: 6.00 Build 0)  -->
<svg version="1.1" id="layer" xmlns="http://www.w3.org/2000/svg" xmlns:xlink="http://www.w3.org/1999/xlink" x="0px" y="0px"
	 viewBox="0 0 453 100" style="enable-background:new 0 0 453 100;" xml:space="preserve">
<style type="text/css">
	.st0{fill:#FFFFFF;}
</style>
<path class="st0" d="M49.5,69.6c-2.7,1-9.3,3.2-14.2,3.2c-5.3,0-9.2-1.8-9.2-7.4c0-4.9,2.7-7.8,10-8l13.4-0.5V69.6z M49.9,78.4
	c0.6,0,2.7,2.3,12.3,2.3V41c0-11.9-7.5-16.6-20.3-16.6c-11.4,0-20.3,2.8-23.7,4.5l2.7,9.4c0,0,8.7-3.1,17.3-3.1
	c7.4,0,11.1,2,11.1,9.2v4.1H38.2c-18.9,0-24.5,8.5-24.5,17.9c0,12.5,9.9,16.4,18.9,16.4C43.1,82.7,49.2,78.4,49.9,78.4 M129.4,81.9
	h12.8l-5.8-57.3c0,0-3.9-0.2-5.8-0.2c-5.4,0-8.4,0.6-10.3,5.3l-11.2,28.2c-0.3,0.8-0.7,2.4-1,3.2c-0.3-0.9-0.7-2.4-1-3.2L95.9,29.7
	C94,25,91,24.4,85.6,24.4c-1.9,0-5.8,0.2-5.8,0.2L74,81.9h12.8l2.8-38.4l12.1,29.1c0.9,2.3,2.7,3.2,6.4,3.2c3.6,0,5.4-0.9,6.3-3.2
	l12.1-29.1L129.4,81.9z M187.4,69.6c-2.7,1-9.3,3.2-14.2,3.2c-5.3,0-9.2-1.8-9.2-7.4c0-4.9,2.7-7.8,10-8l13.4-0.5L187.4,69.6
	L187.4,69.6z M187.8,78.4c0.6,0,2.7,2.3,12.3,2.3V41c0-11.9-7.5-16.6-20.3-16.6c-11.4,0-20.3,2.8-23.7,4.5l2.7,9.4
	c0,0,8.8-3.1,17.3-3.1c7.3,0,11.1,2,11.1,9.2v4.1h-11.1c-18.9,0-24.5,8.5-24.5,17.9c0,12.5,9.9,16.4,18.9,16.4
	C181,82.7,187.1,78.4,187.8,78.4 M254.1,53.1c0,13.4-3.5,19.7-17.6,19.7c-4.5,0-9-0.6-9-0.6V35.3c2-0.4,6.1-1,10.1-1
	C246.9,34.3,254.1,39.4,254.1,53.1 M267.6,53.1c0-18-11.2-28.7-29.4-28.7c-7.3,0-17.3,1.2-23.5,3.4V81c5.1,1,14.7,1.7,21.3,1.7
	C258.8,82.7,267.6,73.9,267.6,53.1 M301.7,82.7c13.3,0,19.5-1.5,19.5-1.5v-9.7c0,0-6.7,1.3-16,1.3c-8.2,0-13.2-1-13.2-1V58h25.3
	v-9.7H292V35.2c0,0,4.9-0.9,12.4-0.9c8.3,0,15.8,1.3,15.8,1.3v-9.8c0,0-6.6-1.4-17.3-1.4c-14.3,0-23.6,2.5-23.6,2.5V80
	C279.3,80,289.2,82.7,301.7,82.7 M372.6,78.1c0.2,0,4.3,2.5,12.5,2.5v-55c-0.9-0.2-7.1-0.8-10.2-0.8h-2.6v42.8
	c-3,1.4-9.6,3.9-15.7,3.9c-8.7,0-10.2-3.9-10.2-12.8V24.9h-1.9c-2.9,0-9.3,0.5-10.9,0.8v34.6c0,15.1,3.8,22.4,19.5,22.4
	C365.1,82.7,372.1,78.1,372.6,78.1 M411.5,40.2c0-1.9,1.5-5.7,9.2-5.7c7.2,0,14.5,3.2,14.5,3.2l3.2-9.3c-2.2-1.1-9.2-4-18.9-4
	c-10.6,0-20.9,5.5-20.9,16.6c0,11.4,10.6,14.9,18.8,17.6c5.6,1.9,10.3,3.8,10.3,7.4c0,3.6-2,6.7-11.5,6.7c-7.8,0-16-1.7-16-1.7
	l-2.3,9.7c0,0,7.9,2,19,2c10.5,0,23.7-3.5,23.7-17.4c0-9.1-6.8-12.9-18-16.9C416.7,46.2,411.5,44.2,411.5,40.2"/>
</svg>
